<svg height="512pt" viewBox="-25 0 512 512" width="512pt" xmlns="http://www.w3.org/2000/svg"><g fill="#5a5a5a"><path d="m77.316406 512h-33.269531c-4.851563 0-8.785156-3.933594-8.785156-8.789062v-56.519532h50.84375v56.519532c0 4.855468-3.933594 8.789062-8.789063 8.789062zm0 0"/><path d="m418.757812 512h-33.273437c-4.851563 0-8.789063-3.933594-8.789063-8.789062v-56.519532h50.847657v56.519532c0 4.855468-3.933594 8.789062-8.785157 8.789062zm0 0"/><path d="m453.804688 125.15625h-444.804688l-9-31.484375v-70.347656c0-12.882813 10.441406-23.324219 23.324219-23.324219h416.15625c12.878906 0 23.324219 10.441406 23.324219 23.324219v70.347656zm0 0"/></g><path d="m439.480469 0h-33.894531c12.882812 0 23.324218 10.441406 23.324218 23.324219v70.347656l9 31.484375h15.894532l9-31.484375v-70.347656c0-12.882813-10.445313-23.324219-23.324219-23.324219zm0 0" fill="#444"/><path d="m67.78125 63.789062h59.035156v39.214844h-59.035156zm0 0" fill="#bfbfbf"/><path d="m92.921875 63.789062h33.894531v39.214844h-33.894531zm0 0" fill="#9c9c9c"/><path d="m332.898438 63.789062h59.035156v39.214844h-59.035156zm0 0" fill="#bfbfbf"/><path d="m358.039062 63.789062h33.894532v39.214844h-33.894532zm0 0" fill="#9c9c9c"/><path d="m439.480469 479.441406h-416.15625c-12.882813 0-23.324219-10.441406-23.324219-23.324218v-362.445313h462.804688v362.445313c0 12.882812-10.445313 23.324218-23.324219 23.324218zm0 0" fill="#e7e7e7"/><path d="m428.910156 93.671875v362.445313c0 12.882812-10.441406 23.324218-23.324218 23.324218h33.894531c12.878906 0 23.324219-10.441406 23.324219-23.324218v-362.445313zm0 0" fill="#bfbfbf"/><path d="m0 456.117188c0 12.882812 10.441406 23.324218 23.324219 23.324218h416.15625c12.878906 0 23.324219-10.441406 23.324219-23.324218v-36.660157h-462.804688zm0 0" fill="#bfbfbf"/><path d="m428.910156 419.457031v36.660157c0 12.878906-10.4375 23.320312-23.316406 23.324218h33.890625c12.878906-.003906 23.320313-10.445312 23.320313-23.324218v-36.660157zm0 0" fill="#9c9c9c"/><path d="m85.34375 145.519531c0 10.308594-8.359375 18.667969-18.667969 18.667969-10.308593 0-18.664062-8.359375-18.664062-18.667969 0-10.308593 8.355469-18.664062 18.664062-18.664062 10.308594 0 18.667969 8.355469 18.667969 18.664062zm0 0" fill="#007298"/><path d="m158.851562 145.519531c0 10.308594-8.355468 18.667969-18.664062 18.667969s-18.667969-8.359375-18.667969-18.667969c0-10.308593 8.359375-18.664062 18.667969-18.664062s18.664062 8.355469 18.664062 18.664062zm0 0" fill="#6daccb"/><path d="m232.359375 145.519531c0 10.308594-8.355469 18.667969-18.664063 18.667969-10.308593 0-18.664062-8.359375-18.664062-18.667969 0-10.308593 8.355469-18.664062 18.664062-18.664062 10.308594 0 18.664063 8.355469 18.664063 18.664062zm0 0" fill="#8abbd5"/><path d="m399.890625 201.9375h-336.976563c-7.4375 0-13.46875 6.03125-13.46875 13.472656v148.960938c0 7.4375 6.03125 13.46875 13.46875 13.46875h336.976563c7.4375 0 13.46875-6.03125 13.46875-13.46875v-148.964844c0-7.4375-6.03125-13.46875-13.46875-13.46875zm0 0" fill="#5a5a5a"/><path d="m399.890625 201.9375h-33.894531c7.441406 0 13.472656 6.03125 13.472656 13.472656v162.429688h20.421875c7.4375 0 13.46875-6.03125 13.46875-13.46875v-148.964844c0-7.4375-6.03125-13.46875-13.46875-13.46875zm0 0" fill="#444"/><path d="m140.054688 71.515625h-82.425782c-6.644531 0-12.050781-5.40625-12.050781-12.050781v-10.46875c0-4.265625 3.460937-7.726563 7.726563-7.726563 4.265624 0 7.726562 3.460938 7.726562 7.726563v7.066406h75.621094v-7.066406c0-4.265625 3.460937-7.726563 7.726562-7.726563s7.726563 3.460938 7.726563 7.726563v10.46875c0 6.644531-5.40625 12.050781-12.050781 12.050781zm0 0" fill="#9c9c9c"/><path d="m405.175781 71.515625h-82.429687c-6.644532 0-12.050782-5.40625-12.050782-12.050781v-10.46875c0-4.265625 3.460938-7.726563 7.726563-7.726563 4.269531 0 7.726563 3.460938 7.726563 7.726563v7.066406h75.621093v-7.066406c0-4.265625 3.460938-7.726563 7.726563-7.726563 4.269531 0 7.726562 3.460938 7.726562 7.726563v10.46875c0 6.644531-5.402344 12.050781-12.046875 12.050781zm0 0" fill="#9c9c9c"/><path d="m413.359375 153.246094h-122.851563c-4.265624 0-7.726562-3.457032-7.726562-7.726563 0-4.265625 3.460938-7.722656 7.726562-7.722656h122.851563c4.265625 0 7.726563 3.457031 7.726563 7.722656 0 4.269531-3.460938 7.726563-7.726563 7.726563zm0 0" fill="#9c9c9c"/><path d="m265.015625 457.175781h-67.230469c-4.265625 0-7.722656-3.457031-7.722656-7.726562 0-4.265625 3.457031-7.722657 7.722656-7.722657h67.230469c4.269531 0 7.726563 3.457032 7.726563 7.722657 0 4.269531-3.457032 7.726562-7.726563 7.726562zm0 0" fill="#e7e7e7"/></svg>